<?xml version="1.0" encoding="UTF-8"?>
<svg width="126px" height="127px" viewBox="0 0 126 127" version="1.1" xmlns="http://www.w3.org/2000/svg" xmlns:xlink="http://www.w3.org/1999/xlink">
    <!-- Generator: Sketch 46.1 (44463) - http://www.bohemiancoding.com/sketch -->
    <title>compass41</title>
    <desc>Created with Sketch.</desc>
    <defs></defs>
    <g id="Page-1" stroke="none" stroke-width="1" fill="none" fill-rule="evenodd">
        <g id="Font-Awesome-Icon-Pack" transform="translate(-1623.000000, -2495.000000)" fill="#000000">
            <g id="compass41" transform="translate(1622.843750, 2495.500000)">
                <g id="Group" fill="none">
                    <path d="M117.18,31.592 C111.585,22.006 103.995,14.416 94.409,8.821 C84.821,3.226 74.354,0.429 63.001,0.429 C51.649,0.429 41.179,3.226 31.593,8.821 C22.006,14.415 14.416,22.005 8.821,31.592 C3.225,41.179 0.428,51.649 0.428,63 C0.428,74.352 3.226,84.82 8.82,94.408 C14.415,103.993 22.005,111.584 31.592,117.179 C41.179,122.774 51.648,125.571 63,125.571 C74.352,125.571 84.822,122.774 94.408,117.179 C103.994,111.585 111.584,103.994 117.179,94.408 C122.773,84.821 125.57,74.351 125.57,63 C125.57,51.648 122.773,41.178 117.18,31.592 L117.18,31.592 Z M101.374,85.242 C97.409,92.031 92.032,97.409 85.242,101.374 C78.453,105.339 71.039,107.32 63,107.32 C54.962,107.32 47.548,105.339 40.758,101.374 C33.969,97.409 28.592,92.031 24.627,85.242 C20.661,78.453 18.679,71.039 18.679,63 C18.679,54.961 20.662,47.547 24.627,40.758 C28.591,33.969 33.969,28.591 40.758,24.626 C47.547,20.661 54.961,18.679 63,18.679 C71.039,18.679 78.453,20.661 85.242,24.626 C92.032,28.591 97.409,33.969 101.374,40.758 C105.339,47.547 107.32,54.961 107.32,63 C107.32,71.039 105.339,78.453 101.374,85.242 L101.374,85.242 Z" id="Shape" fill="#000000"></path>
                    <path d="M42.143,95.507 L83.857,74.651 L83.857,30.492 L42.143,51.349 L42.143,95.507 L42.143,95.507 Z M52.572,57.785 L73.43,68.214 L52.572,78.643 L52.572,57.785 L52.572,57.785 Z" id="Shape" fill="#000000"></path>
                </g>
            </g>
        </g>
    </g>
</svg>
