<?xml version="1.0" encoding="UTF-8"?>
<svg width="126px" height="127px" viewBox="0 0 126 127" version="1.1" xmlns="http://www.w3.org/2000/svg" xmlns:xlink="http://www.w3.org/1999/xlink">
    <!-- Generator: Sketch 46.1 (44463) - http://www.bohemiancoding.com/sketch -->
    <title>earth17</title>
    <desc>Created with Sketch.</desc>
    <defs></defs>
    <g id="Page-1" stroke="none" stroke-width="1" fill="none" fill-rule="evenodd">
        <g id="Font-Awesome-Icon-Pack" transform="translate(-1437.000000, -735.000000)" fill="#000000">
            <g id="earth17" transform="translate(1436.843750, 735.500000)">
                <path d="M117.18,31.592 C111.585,22.006 103.995,14.416 94.409,8.821 C84.821,3.226 74.354,0.429 63.001,0.429 C51.649,0.429 41.18,3.226 31.593,8.821 C22.006,14.415 14.416,22.005 8.821,31.592 C3.225,41.179 0.428,51.649 0.428,63 C0.428,74.351 3.226,84.82 8.82,94.408 C14.415,103.992 22.005,111.584 31.592,117.179 C41.179,122.774 51.648,125.571 63,125.571 C74.352,125.571 84.822,122.774 94.408,117.179 C103.994,111.585 111.584,103.994 117.179,94.408 C122.773,84.82 125.57,74.35 125.57,63 C125.57,51.649 122.773,41.178 117.18,31.592 L117.18,31.592 Z M70.826,95.922 C70.281,95.271 70.092,94.727 70.256,94.291 C70.202,94.563 70.011,94.807 69.686,95.024 C69.414,94.698 68.924,94.29 68.219,93.802 C67.512,93.312 67.024,92.905 66.752,92.578 C66.643,92.416 66.494,92.185 66.304,91.886 C66.114,91.587 65.87,91.194 65.571,90.705 C65.274,90.216 65.057,89.795 64.92,89.441 C64.785,89.088 64.773,88.885 64.88,88.831 C63.848,89.267 62.354,88.968 60.399,87.935 C60.019,87.718 59.448,87.148 58.688,86.224 C57.928,85.301 57.14,84.894 56.325,85.002 C56.054,85.056 55.687,85.151 55.225,85.287 C54.764,85.423 54.37,85.49 54.044,85.49 C53.718,85.49 53.283,85.382 52.74,85.164 C52.306,85.001 51.722,84.688 50.989,84.227 C50.256,83.766 49.753,83.479 49.482,83.372 C48.776,82.992 48.423,82.802 48.423,82.802 L47.119,82.152 C46.793,81.989 46.453,81.732 46.1,81.378 C45.747,81.025 45.517,80.658 45.408,80.278 C45.3,79.952 45.164,79.3 45.001,78.322 C44.838,77.344 44.62,76.638 44.349,76.204 C44.024,75.661 43.562,75.118 42.964,74.575 C42.367,74.032 41.824,73.76 41.335,73.76 C41.77,73.76 41.77,73.395 41.335,72.66 C40.9,71.925 40.52,71.396 40.194,71.071 C40.085,70.962 39.759,70.61 39.216,70.011 C38.673,69.413 38.211,68.899 37.831,68.463 C37.451,68.028 37.124,67.526 36.853,66.955 C36.582,66.384 36.527,65.91 36.69,65.529 C36.744,65.475 36.69,65.393 36.527,65.285 C36.364,65.177 36.161,65.067 35.916,64.959 C35.672,64.851 35.441,64.756 35.224,64.674 C35.006,64.593 34.843,64.552 34.735,64.552 C34.844,64.771 34.966,65.163 35.102,65.734 C35.238,66.305 35.387,66.726 35.55,66.998 C35.659,67.214 36.12,68.003 36.935,69.359 C38.348,71.64 38.999,73.326 38.891,74.412 C38.565,74.519 38.347,74.467 38.239,74.249 C38.13,74.033 38.048,73.734 37.994,73.353 C37.94,72.974 37.886,72.702 37.831,72.539 C37.668,72.212 37.247,71.859 36.568,71.478 C35.889,71.099 35.468,70.718 35.305,70.337 C35.36,70.337 35.427,70.312 35.509,70.256 C35.591,70.201 35.659,70.175 35.713,70.175 C35.768,69.687 35.483,69.062 34.858,68.301 C34.233,67.54 33.976,66.997 34.084,66.671 C33.649,66.345 33.269,65.707 32.943,64.757 C32.617,63.806 32.345,63.195 32.128,62.923 C31.911,62.598 31.64,62.313 31.314,62.068 C30.988,61.824 30.581,61.553 30.092,61.254 C29.603,60.955 29.277,60.752 29.114,60.643 C29.005,60.59 28.788,60.346 28.462,59.911 C26.67,57.738 26.127,56.57 26.833,56.407 C26.127,56.57 25.543,56.041 25.081,54.818 C24.619,53.596 24.47,52.658 24.633,52.007 L24.47,51.926 C24.525,51.708 24.552,51.071 24.552,50.011 C24.552,48.951 24.62,47.987 24.756,47.118 C24.892,46.249 25.15,45.814 25.53,45.814 C25.15,45.868 24.865,45.528 24.675,44.796 C24.485,44.062 24.471,43.559 24.634,43.288 C24.688,43.125 24.933,43.235 25.367,43.614 C25.801,43.993 26.046,44.239 26.1,44.347 C26.806,43.966 27.078,43.478 26.915,42.88 C26.806,42.663 26.236,42.093 25.204,41.169 C22.868,39.649 21.673,38.915 21.619,38.969 C21.944,38.372 21.863,37.856 21.374,37.421 C20.831,37.747 20.519,37.828 20.437,37.666 C20.356,37.503 20.288,37.205 20.233,36.77 C20.179,36.336 20.043,36.092 19.826,36.037 C19.554,35.983 19.228,35.766 18.848,35.386 C23.682,27.673 30.064,21.644 37.994,17.298 C38.32,17.244 38.917,17.217 39.786,17.217 C40.22,17.271 40.628,17.407 41.008,17.624 C41.388,17.841 41.782,18.14 42.189,18.52 C42.597,18.899 42.909,19.171 43.126,19.334 C43.235,19.008 43.099,18.519 42.719,17.867 C42.827,17.541 43.425,17.215 44.511,16.889 C45.76,16.726 46.575,16.753 46.955,16.971 C46.63,16.482 46.087,15.803 45.326,14.934 L44.919,15.341 C44.484,14.961 43.344,15.151 41.497,15.911 C41.389,15.965 41.117,16.115 40.682,16.359 C40.248,16.603 39.894,16.78 39.623,16.888 C39.297,16.997 38.971,17.024 38.645,16.97 C41.252,15.558 43.805,14.443 46.304,13.629 C46.466,13.737 46.738,13.968 47.118,14.321 C47.498,14.674 47.797,14.932 48.014,15.095 C47.851,14.987 47.742,15.04 47.688,15.258 C47.471,15.909 47.471,16.452 47.688,16.887 C47.959,17.268 48.326,17.484 48.788,17.539 C49.25,17.593 49.806,17.566 50.458,17.457 C51.11,17.349 51.545,17.294 51.762,17.294 L52.577,17.376 C54.315,17.539 54.994,17.376 54.614,16.887 C54.777,17.105 54.967,17.553 55.184,18.232 C55.401,18.911 55.646,19.387 55.917,19.658 C56.189,19.44 56.243,19.06 56.08,18.517 C55.917,17.974 55.917,17.593 56.08,17.376 C56.134,17.268 56.297,17.158 56.569,17.05 C56.841,16.942 57.153,16.82 57.506,16.684 C57.859,16.548 58.09,16.453 58.199,16.399 C58.525,16.181 58.307,15.801 57.547,15.258 C57.438,15.203 57.208,15.122 56.855,15.013 C56.502,14.906 56.189,14.796 55.918,14.688 C55.647,14.58 55.362,14.43 55.063,14.24 C54.764,14.05 54.628,13.833 54.655,13.588 C54.682,13.343 54.832,13.031 55.103,12.651 C55.429,12.38 55.959,12.271 56.692,12.325 C57.425,12.379 57.982,12.514 58.362,12.732 C59.829,13.547 60.046,14.281 59.014,14.932 C59.558,14.986 60.21,15.203 60.97,15.583 C61.73,15.964 62.029,16.371 61.866,16.806 C62.301,15.991 62.735,15.583 63.17,15.583 C63.441,15.638 63.7,16.005 63.944,16.684 C64.188,17.363 64.337,17.729 64.391,17.784 C64.827,18.381 65.259,18.517 65.696,18.191 C66.13,17.865 66.578,17.39 67.04,16.765 C67.501,16.141 67.759,15.856 67.813,15.91 C67.27,15.694 67.214,15.476 67.651,15.259 C68.464,14.77 69.198,14.634 69.85,14.852 C70.012,14.96 70.231,15.205 70.501,15.584 C70.988,16.563 70.906,17.024 70.257,16.97 C70.745,17.405 70.947,17.948 70.867,18.599 C70.786,19.251 70.363,19.55 69.603,19.495 C69.332,19.495 68.937,19.359 68.421,19.088 C67.905,18.817 67.511,18.668 67.239,18.64 C66.967,18.612 66.587,18.762 66.098,19.088 C65.881,19.36 65.596,19.822 65.243,20.473 C64.889,21.126 64.577,21.587 64.305,21.858 C63.491,22.673 62.132,22.972 60.231,22.754 C60.394,22.754 60.38,22.917 60.19,23.243 C59.999,23.569 59.742,23.936 59.416,24.343 C59.09,24.75 58.9,24.981 58.846,25.035 C58.357,25.578 58.031,26.203 57.868,26.909 C57.868,27.018 57.841,27.385 57.786,28.009 C57.731,28.634 57.623,29.11 57.46,29.435 C58.112,29.272 58.628,29.599 59.008,30.413 C59.334,31.174 59.334,31.581 59.008,31.636 C60.801,31.365 62.376,31.473 63.735,31.962 C65.69,32.668 66.805,33.374 67.076,34.08 C67.401,33.591 68.188,33.563 69.438,33.998 C69.927,34.269 70.36,35.085 70.742,36.442 C70.959,37.256 71.326,37.963 71.842,38.56 C72.359,39.157 72.914,39.32 73.513,39.049 L73.756,38.886 C73.974,38.778 74.15,38.682 74.286,38.601 C74.422,38.52 74.571,38.411 74.733,38.275 C74.897,38.139 74.992,38.017 75.018,37.909 C75.044,37.801 75.004,37.691 74.897,37.583 C74.516,37.257 74.231,36.809 74.042,36.239 C73.853,35.669 73.894,35.166 74.164,34.731 C74.327,34.514 74.761,34.188 75.468,33.753 C76.174,33.318 76.609,32.884 76.771,32.449 C76.99,31.743 76.718,31.159 75.958,30.697 C75.197,30.236 74.816,29.815 74.816,29.434 C74.816,29.162 74.993,28.837 75.345,28.456 C75.699,28.076 75.849,27.722 75.794,27.397 C75.794,27.233 75.698,26.894 75.509,26.378 C75.32,25.861 75.21,25.481 75.183,25.237 C75.156,24.992 75.279,24.707 75.549,24.382 C75.928,24.164 76.825,24.178 78.237,24.422 C79.649,24.667 80.573,24.925 81.008,25.196 C81.172,25.304 81.525,25.467 82.068,25.685 C82.611,25.901 83.087,26.132 83.495,26.377 C83.9,26.621 84.132,26.851 84.185,27.069 L83.779,27.069 C84.159,27.396 84.39,27.775 84.47,28.21 C84.552,28.646 84.349,28.971 83.861,29.189 C84.185,29.134 84.622,29.216 85.165,29.433 C86.034,29.759 86.061,30.058 85.246,30.329 C85.409,30.274 85.639,30.221 85.937,30.166 C86.236,30.112 86.466,30.03 86.63,29.922 C86.737,29.867 86.874,29.773 87.036,29.637 C87.2,29.501 87.321,29.419 87.403,29.393 C87.485,29.366 87.606,29.338 87.77,29.311 C87.932,29.284 88.094,29.325 88.257,29.433 C88.313,29.433 88.434,29.297 88.624,29.026 C88.812,28.755 89.018,28.483 89.234,28.212 C89.451,27.941 89.64,27.805 89.804,27.805 C89.966,27.805 90.116,27.872 90.251,28.008 C90.388,28.144 90.495,28.293 90.577,28.456 C90.658,28.619 90.739,28.796 90.821,28.985 C90.903,29.175 90.969,29.325 91.024,29.433 C91.132,29.704 91.391,29.99 91.797,30.288 C92.204,30.586 92.462,30.872 92.571,31.143 C92.626,31.306 92.732,31.714 92.896,32.366 C93.058,33.018 93.277,33.466 93.547,33.71 C93.819,33.955 94.226,34.158 94.769,34.321 C94.878,34.376 95.123,34.348 95.502,34.24 C95.882,34.131 96.195,34.104 96.439,34.158 C96.685,34.212 96.806,34.429 96.806,34.81 C97.132,34.484 97.294,34.266 97.294,34.158 C97.349,34.864 97.524,35.435 97.824,35.869 C98.123,36.303 98.598,36.494 99.25,36.439 L99.087,38.232 C98.925,38.503 98.517,38.706 97.864,38.842 C97.212,38.978 96.805,39.101 96.641,39.209 C96.479,39.263 96.084,39.589 95.46,40.187 C94.835,40.785 94.578,41.138 94.686,41.246 C93.764,40.214 92.378,39.915 90.532,40.35 C88.468,40.676 87.055,41.002 86.296,41.328 C85.427,41.763 84.829,42.17 84.503,42.55 C84.448,42.604 84.355,42.795 84.218,43.12 C84.082,43.446 83.947,43.745 83.812,44.016 C83.675,44.287 83.554,44.423 83.446,44.423 C83.773,44.37 84.138,44.111 84.546,43.65 C84.953,43.188 85.212,42.931 85.319,42.876 C86.73,41.953 87.898,41.627 88.827,41.905 C90.021,42.231 90.211,42.666 89.396,43.209 C89.289,43.317 89.003,43.358 88.542,43.331 C88.081,43.304 87.768,43.317 87.604,43.372 C88.094,43.48 88.501,43.63 88.828,43.819 C89.153,44.009 89.235,44.267 89.072,44.593 C89.94,45.082 90.104,45.625 89.561,46.223 C88.854,46.93 88.014,47.228 87.035,47.119 C87.199,47.119 87.199,47.228 87.035,47.445 L85.649,48.341 C85.541,48.394 85.188,48.53 84.59,48.748 C83.992,48.964 83.585,49.21 83.367,49.481 C83.205,49.698 83.123,50.024 83.123,50.46 C83.123,50.895 83.096,51.221 83.041,51.438 C82.988,51.656 82.77,51.709 82.391,51.601 C82.227,51.927 81.725,52.185 80.883,52.374 C80.041,52.564 79.485,52.849 79.213,53.229 C79.538,53.664 79.512,54.098 79.131,54.533 C78.479,55.077 77.908,55.022 77.42,54.37 C77.149,54.479 76.945,54.75 76.809,55.185 C76.674,55.62 76.469,55.919 76.199,56.081 C76.58,56.679 76.524,57.114 76.037,57.385 C76.091,57.385 76.213,57.44 76.403,57.548 C76.592,57.656 76.796,57.792 77.014,57.955 C77.231,58.118 77.366,58.2 77.42,58.2 C77.204,58.688 76.904,58.932 76.524,58.932 C76.85,59.802 76.444,60.753 75.303,61.784 C75.084,62.001 74.745,62.218 74.283,62.436 C73.82,62.653 73.4,62.829 73.019,62.965 C72.638,63.101 72.422,63.196 72.368,63.25 C71.825,63.74 71.417,64.242 71.146,64.758 C70.875,65.274 70.834,65.776 71.023,66.265 C71.213,66.755 71.716,67.079 72.532,67.244 L72.611,67.895 L72.611,69.361 L72.693,70.013 C72.749,70.393 72.79,70.733 72.816,71.033 C72.842,71.332 72.842,71.711 72.816,72.174 C72.79,72.635 72.667,72.893 72.45,72.946 C72.234,73.002 71.935,72.946 71.554,72.783 C71.118,72.566 70.603,71.371 70.005,69.199 C69.896,68.656 69.569,68.005 69.026,67.244 C68.755,67.515 68.524,67.691 68.334,67.772 C68.146,67.854 68.009,67.869 67.929,67.813 C67.847,67.759 67.698,67.636 67.48,67.447 C67.263,67.258 67.074,67.107 66.91,67 C66.639,66.837 66.164,66.701 65.484,66.593 C64.806,66.485 64.383,66.348 64.222,66.186 C62.917,67.165 62.129,66.919 61.858,65.454 C61.75,65.725 61.763,66.092 61.899,66.554 C62.035,67.016 62.103,67.273 62.103,67.327 C61.723,68.034 61.126,68.088 60.311,67.489 C59.985,67.165 59.238,67.124 58.07,67.368 C56.902,67.612 56.128,67.653 55.748,67.489 C55.803,67.489 55.911,67.571 56.074,67.735 C56.237,67.842 56.346,67.923 56.4,67.978 C56.345,68.196 56.264,68.358 56.155,68.467 C56.046,68.574 55.937,68.615 55.829,68.589 C55.72,68.562 55.598,68.562 55.462,68.589 C55.326,68.615 55.204,68.656 55.095,68.711 C54.878,68.873 54.607,69.158 54.281,69.565 C53.955,69.972 53.711,70.23 53.548,70.338 C53.873,71.206 54.023,71.872 53.996,72.333 C53.968,72.796 53.887,73.475 53.751,74.37 C53.615,75.266 53.547,75.987 53.547,76.53 C53.547,77.398 53.805,78.405 54.321,79.545 C54.837,80.685 55.448,81.472 56.154,81.907 C56.535,82.125 57.187,82.26 58.11,82.313 C59.033,82.368 59.685,82.313 60.065,82.151 C60.391,81.989 60.635,81.798 60.798,81.582 C60.961,81.364 61.097,81.051 61.205,80.644 C61.314,80.238 61.396,79.953 61.45,79.79 C61.83,78.758 62.536,78.215 63.567,78.16 C64.221,78.105 64.694,78.175 64.994,78.363 C65.293,78.553 65.415,78.811 65.36,79.137 C65.305,79.463 65.197,79.802 65.035,80.156 C64.872,80.51 64.668,80.902 64.424,81.338 C64.181,81.774 64.031,82.099 63.978,82.317 C63.869,82.752 63.773,83.362 63.693,84.151 C63.611,84.938 63.542,85.414 63.488,85.577 C63.597,85.631 64.004,85.658 64.71,85.658 C64.71,85.55 64.751,85.373 64.833,85.129 C64.913,84.884 64.954,84.735 64.954,84.681 C65.226,85.116 65.661,85.359 66.259,85.414 C66.856,85.468 67.291,85.251 67.563,84.762 C67.672,84.925 67.998,85.333 68.542,85.986 C69.085,86.636 69.384,87.179 69.438,87.615 C69.492,87.833 69.6,88.185 69.762,88.675 C69.926,89.164 69.981,89.504 69.926,89.695 C69.872,89.883 69.6,89.979 69.112,89.979 C68.895,89.979 68.759,90.061 68.705,90.223 C68.649,90.387 68.649,90.589 68.705,90.834 C68.76,91.078 68.828,91.309 68.908,91.526 C68.99,91.742 69.098,91.974 69.233,92.218 C69.371,92.461 69.438,92.611 69.438,92.665 C70.415,94.457 71.746,94.946 73.43,94.132 C73.43,95.707 73.049,96.575 72.288,96.738 C71.857,96.846 71.369,96.572 70.826,95.922 L70.826,95.922 Z M72.043,114.328 C71.936,113.785 71.881,113.351 71.887,113.027 C71.831,112.591 72.022,112.007 72.456,111.275 C72.89,110.543 73.107,109.985 73.107,109.605 C72.238,109.388 71.912,108.681 72.128,107.487 C72.237,106.672 73.024,105.586 74.49,104.228 C75.524,103.304 75.848,102 75.469,100.317 C75.305,99.611 75.169,98.578 75.061,97.22 C74.954,95.862 74.844,94.911 74.735,94.368 C74.735,94.531 74.993,94.68 75.51,94.816 C76.026,94.951 76.338,95.128 76.447,95.344 C76.555,95.182 76.69,94.883 76.854,94.448 C77.016,94.013 77.18,93.688 77.341,93.47 C77.45,93.307 77.68,93.104 78.034,92.859 C78.387,92.615 78.618,92.466 78.726,92.412 C78.833,92.358 79.078,92.182 79.458,91.883 C79.838,91.584 80.151,91.354 80.396,91.191 C80.642,91.028 80.966,90.906 81.374,90.825 C81.782,90.743 82.066,90.865 82.228,91.191 C82.5,91.517 82.447,92.019 82.066,92.699 C81.685,93.378 81.685,93.854 82.066,94.126 C82.121,93.962 82.174,93.608 82.228,93.065 C82.283,92.522 82.447,92.114 82.718,91.842 C83.043,91.517 83.355,91.326 83.655,91.273 C83.953,91.217 84.224,91.258 84.468,91.395 C84.713,91.53 84.998,91.719 85.323,91.965 C85.649,92.208 85.948,92.358 86.219,92.412 C87.033,92.683 88.012,93.281 89.153,94.204 C89.098,94.149 89.098,94.082 89.153,94 C89.208,93.919 89.315,93.838 89.479,93.756 C89.641,93.676 89.79,93.594 89.926,93.512 C90.061,93.43 90.21,93.364 90.373,93.309 L90.618,93.227 C90.997,93.227 91.269,93.201 91.431,93.145 C91.593,93.091 91.826,93.145 92.123,93.309 C92.421,93.471 92.626,93.593 92.733,93.675 C92.842,93.756 93.032,93.905 93.303,94.123 C93.574,94.34 93.766,94.503 93.872,94.611 C94.036,94.718 94.334,94.91 94.768,95.181 C95.204,95.452 95.543,95.669 95.788,95.832 C96.033,95.994 96.25,96.239 96.438,96.563 C96.628,96.891 96.698,97.244 96.643,97.624 C96.969,97.679 97.62,97.895 98.598,98.275 C98.762,98.383 99.1,98.479 99.617,98.559 C100.134,98.641 100.473,98.764 100.636,98.926 C92.766,107.24 83.232,112.373 72.043,114.328 L72.043,114.328 Z" id="Shape"></path>
            </g>
        </g>
    </g>
</svg>