<?xml version="1.0" encoding="UTF-8"?>
<svg width="158px" height="137px" viewBox="0 0 158 137" version="1.1" xmlns="http://www.w3.org/2000/svg" xmlns:xlink="http://www.w3.org/1999/xlink">
    <!-- Generator: Sketch 46.1 (44463) - http://www.bohemiancoding.com/sketch -->
    <title>photo33</title>
    <desc>Created with Sketch.</desc>
    <defs></defs>
    <g id="Page-1" stroke="none" stroke-width="1" fill="none" fill-rule="evenodd">
        <g id="Font-Awesome-Icon-Pack" transform="translate(-1979.000000, -1434.000000)" fill="#000000">
            <g id="photo33" transform="translate(1979.843750, 1434.500000)">
                <g id="Group" fill="none">
                    <path d="M150.104,27.181 C146.03,23.108 141.116,21.071 135.358,21.071 L117.108,21.071 L112.954,9.991 C111.922,7.33 110.035,5.035 107.291,3.106 C104.548,1.178 101.737,0.213 98.858,0.213 L57.143,0.213 C54.264,0.213 51.453,1.178 48.71,3.106 C45.967,5.035 44.08,7.33 43.048,9.991 L38.893,21.071 L20.643,21.071 C14.885,21.071 9.97,23.108 5.896,27.181 C1.823,31.255 -0.214,36.17 -0.214,41.928 L-0.214,114.928 C-0.214,120.686 1.823,125.602 5.896,129.674 C9.97,133.748 14.885,135.785 20.643,135.785 L135.357,135.785 C141.115,135.785 146.029,133.748 150.103,129.674 C154.176,125.602 156.213,120.686 156.213,114.928 L156.213,41.928 C156.214,36.17 154.177,31.255 150.104,27.181 L150.104,27.181 Z M103.786,104.215 C96.644,111.358 88.049,114.929 78,114.929 C67.951,114.929 59.357,111.358 52.214,104.215 C45.071,97.073 41.5,88.477 41.5,78.429 C41.5,68.38 45.072,59.786 52.214,52.643 C59.356,45.5 67.951,41.929 78,41.929 C88.049,41.929 96.643,45.501 103.786,52.643 C110.929,59.785 114.5,68.38 114.5,78.429 C114.5,88.477 110.928,97.072 103.786,104.215 L103.786,104.215 Z" id="Shape" fill="#000000"></path>
                    <path d="M78,54.964 C71.536,54.964 66.01,57.259 61.42,61.849 C56.83,66.439 54.535,71.965 54.535,78.429 C54.535,84.893 56.83,90.419 61.42,95.009 C66.01,99.598 71.536,101.893 78,101.893 C84.463,101.893 89.99,99.598 94.58,95.009 C99.17,90.419 101.465,84.893 101.465,78.429 C101.465,71.965 99.17,66.439 94.58,61.849 C89.99,57.259 84.463,54.964 78,54.964 L78,54.964 Z" id="Shape" fill="#000000"></path>
                </g>
            </g>
        </g>
    </g>
</svg>
